<svg xmlns="http://www.w3.org/2000/svg" version="1.1" xmlns:xlink="http://www.w3.org/1999/xlink" xmlns:svgjs="http://svgjs.com/svgjs" width="1440" height="560" preserveAspectRatio="none" viewBox="0 0 1440 560"><g mask="url(&quot;#SvgjsMask1071&quot;)" fill="none"><rect width="1440" height="560" x="0" y="0" fill="url(#SvgjsLinearGradient1072)"></rect><path d="M1464 560L0 560 L0 307.17Q72.69 259.86, 120 332.54Q154.34 246.88, 240 281.23Q282.4 251.63, 312 294.04Q403.94 265.98, 432 357.92Q474.39 280.31, 552 322.7Q619.7 270.4, 672 338.1Q712.05 258.15, 792 298.21Q841.62 275.82, 864 325.44Q915.95 257.39, 984 309.34Q1069.57 274.91, 1104 360.48Q1169.51 305.99, 1224 371.5Q1265.01 292.51, 1344 333.52Q1410.58 280.1, 1464 346.68z" fill="#182f5d"></path><path d="M1560 560L0 560 L0 380.65Q62.15 322.8, 120 384.96Q162.18 355.14, 192 397.32Q274.87 360.19, 312 443.06Q327.16 338.22, 432 353.38Q502.98 304.36, 552 375.34Q605.52 356.86, 624 410.37Q630.02 344.39, 696 350.42Q761.45 295.87, 816 361.32Q888.4 313.72, 936 386.12Q1003.56 333.68, 1056 401.24Q1097.43 322.68, 1176 364.11Q1219.49 335.6, 1248 379.08Q1317.63 328.7, 1368 398.33Q1423.71 382.04, 1440 437.76Q1490.88 368.64, 1560 419.53z" fill="#25467d"></path><path d="M1512 560L0 560 L0 425.23Q51.81 405.05, 72 456.86Q100.02 412.88, 144 440.9Q200 424.89, 216 480.89Q293.87 438.76, 336 516.63Q361.7 470.33, 408 496.03Q452.32 420.35, 528 464.66Q544.81 409.47, 600 426.28Q673.25 379.53, 720 452.79Q772.03 384.82, 840 436.85Q897.34 422.19, 912 479.53Q931.74 427.26, 984 447Q1026.22 417.23, 1056 459.45Q1129.93 413.38, 1176 487.32Q1181.08 420.4, 1248 425.48Q1302.81 408.29, 1320 463.1Q1390.7 413.8, 1440 484.5Q1459.6 432.1, 1512 451.7z" fill="#356cb1"></path><path d="M1560 560L0 560 L0 519.53Q78.29 477.82, 120 556.11Q161.18 525.29, 192 566.46Q197.78 500.25, 264 506.03Q330.89 452.92, 384 519.82Q472.88 488.7, 504 577.57Q530.97 532.54, 576 559.51Q583.28 494.79, 648 502.08Q719.96 454.04, 768 526.01Q843.25 481.26, 888 556.52Q919.43 467.95, 1008 499.39Q1083.01 454.39, 1128 529.4Q1208.97 490.38, 1248 571.35Q1279.28 482.63, 1368 513.92Q1415.36 489.27, 1440 536.63Q1508.19 484.82, 1560 553.01z" fill="white"></path></g><defs><mask id="SvgjsMask1071"><rect width="1440" height="560" fill="#ffffff"></rect></mask><linearGradient x1="15.28%" y1="-39.29%" x2="84.72%" y2="139.29%" gradientUnits="userSpaceOnUse" id="SvgjsLinearGradient1072"><stop stop-color="#0e2a47" offset="0"></stop><stop stop-color="rgba(0, 18, 158, 1)" offset="1"></stop></linearGradient></defs></svg>